<mxfile host="app.diagrams.net" modified="2022-11-01T06:33:08.802Z" agent="5.0 (Windows NT 10.0; Win64; x64) AppleWebKit/537.36 (KHTML, like Gecko) Chrome/107.0.0.0 Safari/537.36 Edg/107.0.1418.26" etag="CJ2W_VmFHpYTj5e4LY4X" version="20.5.1" type="github">
  <diagram id="utqhY-a6OnL884bGnup9" name="第 1 页">
    <mxGraphModel dx="1422" dy="762" grid="1" gridSize="10" guides="1" tooltips="1" connect="1" arrows="1" fold="1" page="1" pageScale="1" pageWidth="827" pageHeight="1169" math="0" shadow="0">
      <root>
        <mxCell id="0" />
        <mxCell id="1" parent="0" />
        <mxCell id="EUvBKKkU1hAe5sXbwoL3-7" style="edgeStyle=orthogonalEdgeStyle;rounded=0;orthogonalLoop=1;jettySize=auto;html=1;" edge="1" parent="1" source="EUvBKKkU1hAe5sXbwoL3-1" target="EUvBKKkU1hAe5sXbwoL3-4">
          <mxGeometry relative="1" as="geometry" />
        </mxCell>
        <mxCell id="EUvBKKkU1hAe5sXbwoL3-1" value="基础信息平台" style="rounded=1;whiteSpace=wrap;html=1;" vertex="1" parent="1">
          <mxGeometry x="100" y="146" width="120" height="60" as="geometry" />
        </mxCell>
        <mxCell id="EUvBKKkU1hAe5sXbwoL3-9" style="edgeStyle=orthogonalEdgeStyle;rounded=0;orthogonalLoop=1;jettySize=auto;html=1;entryX=0;entryY=0.5;entryDx=0;entryDy=0;exitX=1;exitY=0.5;exitDx=0;exitDy=0;" edge="1" parent="1" source="EUvBKKkU1hAe5sXbwoL3-2" target="EUvBKKkU1hAe5sXbwoL3-5">
          <mxGeometry relative="1" as="geometry" />
        </mxCell>
        <mxCell id="EUvBKKkU1hAe5sXbwoL3-2" value="实施监督系统" style="rounded=1;whiteSpace=wrap;html=1;" vertex="1" parent="1">
          <mxGeometry x="100" y="258" width="120" height="60" as="geometry" />
        </mxCell>
        <mxCell id="EUvBKKkU1hAe5sXbwoL3-11" value=".3" style="swimlane;strokeColor=default;fillColor=none;" vertex="1" parent="1">
          <mxGeometry x="414" y="130" width="696" height="390" as="geometry" />
        </mxCell>
        <mxCell id="EUvBKKkU1hAe5sXbwoL3-3" value="nginx" style="swimlane;fontStyle=0;childLayout=stackLayout;horizontal=1;startSize=26;fillColor=none;horizontalStack=0;resizeParent=1;resizeParentMax=0;resizeLast=0;collapsible=1;marginBottom=0;" vertex="1" parent="EUvBKKkU1hAe5sXbwoL3-11">
          <mxGeometry x="20" y="50" width="140" height="78" as="geometry" />
        </mxCell>
        <mxCell id="EUvBKKkU1hAe5sXbwoL3-4" value="9001" style="text;strokeColor=none;fillColor=none;align=left;verticalAlign=top;spacingLeft=4;spacingRight=4;overflow=hidden;rotatable=0;points=[[0,0.5],[1,0.5]];portConstraint=eastwest;" vertex="1" parent="EUvBKKkU1hAe5sXbwoL3-3">
          <mxGeometry y="26" width="140" height="26" as="geometry" />
        </mxCell>
        <mxCell id="EUvBKKkU1hAe5sXbwoL3-5" value="9002" style="text;strokeColor=#d6b656;fillColor=#fff2cc;align=left;verticalAlign=top;spacingLeft=4;spacingRight=4;overflow=hidden;rotatable=0;points=[[0,0.5],[1,0.5]];portConstraint=eastwest;" vertex="1" parent="EUvBKKkU1hAe5sXbwoL3-3">
          <mxGeometry y="52" width="140" height="26" as="geometry" />
        </mxCell>
        <mxCell id="EUvBKKkU1hAe5sXbwoL3-12" value="promethus" style="swimlane;fontStyle=0;childLayout=stackLayout;horizontal=1;startSize=26;fillColor=none;horizontalStack=0;resizeParent=1;resizeParentMax=0;resizeLast=0;collapsible=1;marginBottom=0;" vertex="1" parent="EUvBKKkU1hAe5sXbwoL3-11">
          <mxGeometry x="526" y="50" width="140" height="52" as="geometry" />
        </mxCell>
        <mxCell id="EUvBKKkU1hAe5sXbwoL3-13" value="9090" style="text;strokeColor=none;fillColor=none;align=left;verticalAlign=top;spacingLeft=4;spacingRight=4;overflow=hidden;rotatable=0;points=[[0,0.5],[1,0.5]];portConstraint=eastwest;" vertex="1" parent="EUvBKKkU1hAe5sXbwoL3-12">
          <mxGeometry y="26" width="140" height="26" as="geometry" />
        </mxCell>
        <mxCell id="EUvBKKkU1hAe5sXbwoL3-15" value="nacos" style="swimlane;fontStyle=0;childLayout=stackLayout;horizontal=1;startSize=26;fillColor=none;horizontalStack=0;resizeParent=1;resizeParentMax=0;resizeLast=0;collapsible=1;marginBottom=0;" vertex="1" parent="EUvBKKkU1hAe5sXbwoL3-11">
          <mxGeometry x="526" y="320" width="140" height="52" as="geometry" />
        </mxCell>
        <mxCell id="EUvBKKkU1hAe5sXbwoL3-16" value="8849" style="text;strokeColor=none;fillColor=none;align=left;verticalAlign=top;spacingLeft=4;spacingRight=4;overflow=hidden;rotatable=0;points=[[0,0.5],[1,0.5]];portConstraint=eastwest;" vertex="1" parent="EUvBKKkU1hAe5sXbwoL3-15">
          <mxGeometry y="26" width="140" height="26" as="geometry" />
        </mxCell>
        <mxCell id="EUvBKKkU1hAe5sXbwoL3-17" value="grafana" style="swimlane;fontStyle=0;childLayout=stackLayout;horizontal=1;startSize=26;fillColor=none;horizontalStack=0;resizeParent=1;resizeParentMax=0;resizeLast=0;collapsible=1;marginBottom=0;" vertex="1" parent="EUvBKKkU1hAe5sXbwoL3-11">
          <mxGeometry x="266" y="50" width="140" height="52" as="geometry" />
        </mxCell>
        <mxCell id="EUvBKKkU1hAe5sXbwoL3-18" value="9003" style="text;strokeColor=none;fillColor=none;align=left;verticalAlign=top;spacingLeft=4;spacingRight=4;overflow=hidden;rotatable=0;points=[[0,0.5],[1,0.5]];portConstraint=eastwest;" vertex="1" parent="EUvBKKkU1hAe5sXbwoL3-17">
          <mxGeometry y="26" width="140" height="26" as="geometry" />
        </mxCell>
        <mxCell id="EUvBKKkU1hAe5sXbwoL3-19" value="kkfile" style="swimlane;fontStyle=0;childLayout=stackLayout;horizontal=1;startSize=26;fillColor=none;horizontalStack=0;resizeParent=1;resizeParentMax=0;resizeLast=0;collapsible=1;marginBottom=0;" vertex="1" parent="EUvBKKkU1hAe5sXbwoL3-11">
          <mxGeometry x="356" y="128" width="140" height="52" as="geometry" />
        </mxCell>
        <mxCell id="EUvBKKkU1hAe5sXbwoL3-20" value="8012" style="text;strokeColor=none;fillColor=none;align=left;verticalAlign=top;spacingLeft=4;spacingRight=4;overflow=hidden;rotatable=0;points=[[0,0.5],[1,0.5]];portConstraint=eastwest;" vertex="1" parent="EUvBKKkU1hAe5sXbwoL3-19">
          <mxGeometry y="26" width="140" height="26" as="geometry" />
        </mxCell>
        <mxCell id="EUvBKKkU1hAe5sXbwoL3-21" style="edgeStyle=orthogonalEdgeStyle;rounded=0;orthogonalLoop=1;jettySize=auto;html=1;entryX=0;entryY=0.5;entryDx=0;entryDy=0;fillColor=#fff2cc;strokeColor=#d6b656;" edge="1" parent="EUvBKKkU1hAe5sXbwoL3-11" source="EUvBKKkU1hAe5sXbwoL3-5" target="EUvBKKkU1hAe5sXbwoL3-20">
          <mxGeometry relative="1" as="geometry" />
        </mxCell>
        <mxCell id="EUvBKKkU1hAe5sXbwoL3-22" value="/preview/" style="edgeLabel;html=1;align=center;verticalAlign=middle;resizable=0;points=[];" vertex="1" connectable="0" parent="EUvBKKkU1hAe5sXbwoL3-21">
          <mxGeometry x="-0.1018" y="-3" relative="1" as="geometry">
            <mxPoint y="12" as="offset" />
          </mxGeometry>
        </mxCell>
        <mxCell id="EUvBKKkU1hAe5sXbwoL3-23" style="edgeStyle=orthogonalEdgeStyle;rounded=0;orthogonalLoop=1;jettySize=auto;html=1;exitX=1;exitY=0.5;exitDx=0;exitDy=0;entryX=0;entryY=0.5;entryDx=0;entryDy=0;" edge="1" parent="EUvBKKkU1hAe5sXbwoL3-11" source="EUvBKKkU1hAe5sXbwoL3-4" target="EUvBKKkU1hAe5sXbwoL3-18">
          <mxGeometry relative="1" as="geometry" />
        </mxCell>
        <mxCell id="EUvBKKkU1hAe5sXbwoL3-24" value="/grafana/" style="edgeLabel;html=1;align=center;verticalAlign=middle;resizable=0;points=[];" vertex="1" connectable="0" parent="EUvBKKkU1hAe5sXbwoL3-23">
          <mxGeometry x="-0.0784" y="1" relative="1" as="geometry">
            <mxPoint as="offset" />
          </mxGeometry>
        </mxCell>
        <mxCell id="EUvBKKkU1hAe5sXbwoL3-25" style="edgeStyle=orthogonalEdgeStyle;rounded=0;orthogonalLoop=1;jettySize=auto;html=1;entryX=0;entryY=0.75;entryDx=0;entryDy=0;" edge="1" parent="EUvBKKkU1hAe5sXbwoL3-11" source="EUvBKKkU1hAe5sXbwoL3-18" target="EUvBKKkU1hAe5sXbwoL3-12">
          <mxGeometry relative="1" as="geometry" />
        </mxCell>
        <mxCell id="EUvBKKkU1hAe5sXbwoL3-26" value="微服务" style="swimlane;fontStyle=0;childLayout=stackLayout;horizontal=1;startSize=26;fillColor=none;horizontalStack=0;resizeParent=1;resizeParentMax=0;resizeLast=0;collapsible=1;marginBottom=0;" vertex="1" parent="EUvBKKkU1hAe5sXbwoL3-11">
          <mxGeometry x="286" y="250" width="140" height="78" as="geometry" />
        </mxCell>
        <mxCell id="EUvBKKkU1hAe5sXbwoL3-27" value="9999(gateway)" style="text;strokeColor=#82b366;fillColor=#d5e8d4;align=left;verticalAlign=top;spacingLeft=4;spacingRight=4;overflow=hidden;rotatable=0;points=[[0,0.5],[1,0.5]];portConstraint=eastwest;" vertex="1" parent="EUvBKKkU1hAe5sXbwoL3-26">
          <mxGeometry y="26" width="140" height="26" as="geometry" />
        </mxCell>
        <mxCell id="EUvBKKkU1hAe5sXbwoL3-32" value="upms,auth" style="text;align=left;verticalAlign=top;spacingLeft=4;spacingRight=4;overflow=hidden;rotatable=0;points=[[0,0.5],[1,0.5]];portConstraint=eastwest;" vertex="1" parent="EUvBKKkU1hAe5sXbwoL3-26">
          <mxGeometry y="52" width="140" height="26" as="geometry" />
        </mxCell>
        <mxCell id="EUvBKKkU1hAe5sXbwoL3-30" style="edgeStyle=orthogonalEdgeStyle;rounded=0;orthogonalLoop=1;jettySize=auto;html=1;entryX=0;entryY=0.5;entryDx=0;entryDy=0;fillColor=#d5e8d4;strokeColor=#82b366;" edge="1" parent="EUvBKKkU1hAe5sXbwoL3-11" source="EUvBKKkU1hAe5sXbwoL3-5" target="EUvBKKkU1hAe5sXbwoL3-27">
          <mxGeometry relative="1" as="geometry" />
        </mxCell>
        <mxCell id="EUvBKKkU1hAe5sXbwoL3-31" value="/auth,/admin..." style="edgeLabel;html=1;align=center;verticalAlign=middle;resizable=0;points=[];" vertex="1" connectable="0" parent="EUvBKKkU1hAe5sXbwoL3-30">
          <mxGeometry x="-0.1" y="-1" relative="1" as="geometry">
            <mxPoint as="offset" />
          </mxGeometry>
        </mxCell>
        <mxCell id="EUvBKKkU1hAe5sXbwoL3-33" style="edgeStyle=orthogonalEdgeStyle;rounded=0;orthogonalLoop=1;jettySize=auto;html=1;entryX=0;entryY=0.75;entryDx=0;entryDy=0;exitX=1.007;exitY=0.167;exitDx=0;exitDy=0;exitPerimeter=0;" edge="1" parent="EUvBKKkU1hAe5sXbwoL3-11" source="EUvBKKkU1hAe5sXbwoL3-26" target="EUvBKKkU1hAe5sXbwoL3-15">
          <mxGeometry relative="1" as="geometry" />
        </mxCell>
        <mxCell id="EUvBKKkU1hAe5sXbwoL3-34" value="注册" style="edgeLabel;html=1;align=center;verticalAlign=middle;resizable=0;points=[];" vertex="1" connectable="0" parent="EUvBKKkU1hAe5sXbwoL3-33">
          <mxGeometry x="-0.1818" y="1" relative="1" as="geometry">
            <mxPoint as="offset" />
          </mxGeometry>
        </mxCell>
        <mxCell id="EUvBKKkU1hAe5sXbwoL3-52" style="edgeStyle=orthogonalEdgeStyle;rounded=0;orthogonalLoop=1;jettySize=auto;html=1;entryX=0;entryY=0.5;entryDx=0;entryDy=0;exitX=1;exitY=0.25;exitDx=0;exitDy=0;fillColor=#dae8fc;strokeColor=#6c8ebf;" edge="1" parent="1" source="EUvBKKkU1hAe5sXbwoL3-41" target="EUvBKKkU1hAe5sXbwoL3-47">
          <mxGeometry relative="1" as="geometry">
            <Array as="points">
              <mxPoint x="1140" y="583" />
              <mxPoint x="1140" y="339" />
            </Array>
          </mxGeometry>
        </mxCell>
        <mxCell id="EUvBKKkU1hAe5sXbwoL3-58" style="edgeStyle=orthogonalEdgeStyle;rounded=0;orthogonalLoop=1;jettySize=auto;html=1;entryX=0;entryY=0.5;entryDx=0;entryDy=0;fillColor=#ffe6cc;strokeColor=#d79b00;" edge="1" parent="1" source="EUvBKKkU1hAe5sXbwoL3-41" target="EUvBKKkU1hAe5sXbwoL3-48">
          <mxGeometry relative="1" as="geometry">
            <Array as="points">
              <mxPoint x="1200" y="596" />
              <mxPoint x="1200" y="365" />
            </Array>
          </mxGeometry>
        </mxCell>
        <mxCell id="EUvBKKkU1hAe5sXbwoL3-59" style="edgeStyle=orthogonalEdgeStyle;rounded=0;orthogonalLoop=1;jettySize=auto;html=1;entryX=0;entryY=0.5;entryDx=0;entryDy=0;fillColor=#f8cecc;strokeColor=#b85450;" edge="1" parent="1" source="EUvBKKkU1hAe5sXbwoL3-41" target="EUvBKKkU1hAe5sXbwoL3-49">
          <mxGeometry relative="1" as="geometry">
            <Array as="points">
              <mxPoint x="1260" y="596" />
              <mxPoint x="1260" y="391" />
            </Array>
          </mxGeometry>
        </mxCell>
        <mxCell id="EUvBKKkU1hAe5sXbwoL3-41" value=".4" style="swimlane;fontStyle=0;childLayout=stackLayout;horizontal=1;startSize=26;fillColor=none;horizontalStack=0;resizeParent=1;resizeParentMax=0;resizeLast=0;collapsible=1;marginBottom=0;" vertex="1" parent="1">
          <mxGeometry x="720" y="570" width="140" height="52" as="geometry" />
        </mxCell>
        <mxCell id="EUvBKKkU1hAe5sXbwoL3-42" value="业务微服务" style="text;strokeColor=none;fillColor=none;align=left;verticalAlign=top;spacingLeft=4;spacingRight=4;overflow=hidden;rotatable=0;points=[[0,0.5],[1,0.5]];portConstraint=eastwest;" vertex="1" parent="EUvBKKkU1hAe5sXbwoL3-41">
          <mxGeometry y="26" width="140" height="26" as="geometry" />
        </mxCell>
        <mxCell id="EUvBKKkU1hAe5sXbwoL3-44" style="edgeStyle=orthogonalEdgeStyle;rounded=0;orthogonalLoop=1;jettySize=auto;html=1;entryX=0;entryY=0.5;entryDx=0;entryDy=0;" edge="1" parent="1" source="EUvBKKkU1hAe5sXbwoL3-42" target="EUvBKKkU1hAe5sXbwoL3-16">
          <mxGeometry relative="1" as="geometry" />
        </mxCell>
        <mxCell id="EUvBKKkU1hAe5sXbwoL3-45" value="注册" style="edgeLabel;html=1;align=center;verticalAlign=middle;resizable=0;points=[];" vertex="1" connectable="0" parent="EUvBKKkU1hAe5sXbwoL3-44">
          <mxGeometry x="0.2273" y="2" relative="1" as="geometry">
            <mxPoint as="offset" />
          </mxGeometry>
        </mxCell>
        <mxCell id="EUvBKKkU1hAe5sXbwoL3-46" value=".2" style="swimlane;fontStyle=0;childLayout=stackLayout;horizontal=1;startSize=26;fillColor=none;horizontalStack=0;resizeParent=1;resizeParentMax=0;resizeLast=0;collapsible=1;marginBottom=0;" vertex="1" parent="1">
          <mxGeometry x="1310" y="300" width="140" height="104" as="geometry" />
        </mxCell>
        <mxCell id="EUvBKKkU1hAe5sXbwoL3-47" value="3306(mysql)" style="text;strokeColor=#6c8ebf;fillColor=#dae8fc;align=left;verticalAlign=top;spacingLeft=4;spacingRight=4;overflow=hidden;rotatable=0;points=[[0,0.5],[1,0.5]];portConstraint=eastwest;" vertex="1" parent="EUvBKKkU1hAe5sXbwoL3-46">
          <mxGeometry y="26" width="140" height="26" as="geometry" />
        </mxCell>
        <mxCell id="EUvBKKkU1hAe5sXbwoL3-48" value="6379(redis)" style="text;strokeColor=#d79b00;fillColor=#ffe6cc;align=left;verticalAlign=top;spacingLeft=4;spacingRight=4;overflow=hidden;rotatable=0;points=[[0,0.5],[1,0.5]];portConstraint=eastwest;" vertex="1" parent="EUvBKKkU1hAe5sXbwoL3-46">
          <mxGeometry y="52" width="140" height="26" as="geometry" />
        </mxCell>
        <mxCell id="EUvBKKkU1hAe5sXbwoL3-49" value="9000(minio)" style="text;strokeColor=#b85450;fillColor=#f8cecc;align=left;verticalAlign=top;spacingLeft=4;spacingRight=4;overflow=hidden;rotatable=0;points=[[0,0.5],[1,0.5]];portConstraint=eastwest;" vertex="1" parent="EUvBKKkU1hAe5sXbwoL3-46">
          <mxGeometry y="78" width="140" height="26" as="geometry" />
        </mxCell>
        <mxCell id="EUvBKKkU1hAe5sXbwoL3-50" style="edgeStyle=orthogonalEdgeStyle;rounded=0;orthogonalLoop=1;jettySize=auto;html=1;entryX=0;entryY=0.5;entryDx=0;entryDy=0;fillColor=#dae8fc;strokeColor=#6c8ebf;" edge="1" parent="1" source="EUvBKKkU1hAe5sXbwoL3-26" target="EUvBKKkU1hAe5sXbwoL3-47">
          <mxGeometry relative="1" as="geometry" />
        </mxCell>
        <mxCell id="EUvBKKkU1hAe5sXbwoL3-51" style="edgeStyle=orthogonalEdgeStyle;rounded=0;orthogonalLoop=1;jettySize=auto;html=1;entryX=0;entryY=0.5;entryDx=0;entryDy=0;fillColor=#dae8fc;strokeColor=#6c8ebf;" edge="1" parent="1" source="EUvBKKkU1hAe5sXbwoL3-15" target="EUvBKKkU1hAe5sXbwoL3-47">
          <mxGeometry relative="1" as="geometry" />
        </mxCell>
        <mxCell id="EUvBKKkU1hAe5sXbwoL3-53" style="edgeStyle=orthogonalEdgeStyle;rounded=0;orthogonalLoop=1;jettySize=auto;html=1;entryX=0;entryY=0.5;entryDx=0;entryDy=0;fillColor=#f8cecc;strokeColor=#b85450;" edge="1" parent="1" source="EUvBKKkU1hAe5sXbwoL3-5" target="EUvBKKkU1hAe5sXbwoL3-49">
          <mxGeometry relative="1" as="geometry">
            <Array as="points">
              <mxPoint x="960" y="245" />
              <mxPoint x="960" y="391" />
            </Array>
          </mxGeometry>
        </mxCell>
        <mxCell id="EUvBKKkU1hAe5sXbwoL3-55" value="/systemfile/" style="edgeLabel;html=1;align=center;verticalAlign=middle;resizable=0;points=[];" vertex="1" connectable="0" parent="EUvBKKkU1hAe5sXbwoL3-53">
          <mxGeometry x="-0.0431" y="2" relative="1" as="geometry">
            <mxPoint as="offset" />
          </mxGeometry>
        </mxCell>
        <mxCell id="EUvBKKkU1hAe5sXbwoL3-56" style="edgeStyle=orthogonalEdgeStyle;rounded=0;orthogonalLoop=1;jettySize=auto;html=1;entryX=0;entryY=0.5;entryDx=0;entryDy=0;fillColor=#ffe6cc;strokeColor=#d79b00;" edge="1" parent="1" source="EUvBKKkU1hAe5sXbwoL3-26" target="EUvBKKkU1hAe5sXbwoL3-48">
          <mxGeometry relative="1" as="geometry">
            <Array as="points">
              <mxPoint x="770" y="365" />
            </Array>
          </mxGeometry>
        </mxCell>
      </root>
    </mxGraphModel>
  </diagram>
</mxfile>
